HIERARCHY
ROOT Hips
{
	OFFSET -3.958830 18.904000 13.208200
	CHANNELS 6 Xposition Yposition Zposition Zrotation Yrotation Xrotation 
	JOINT LHipJoint
	{
		OFFSET 0.000000 0.000000 0.000000
		CHANNELS 3 Zrotation Yrotation Xrotation
		JOINT LeftUpLeg
		{
			OFFSET 1.800000 -1.400000 0.085000
			CHANNELS 3 Zrotation Yrotation Xrotation
			JOINT LeftLeg
			{
				OFFSET 2.215000 -6.000000 0.000000
				CHANNELS 3 Zrotation Yrotation Xrotation
				JOINT LeftFoot
				{
					OFFSET 2.500000 -6.900000 0.000000
					CHANNELS 3 Zrotation Yrotation Xrotation
					JOINT LeftToeBase
					{
						OFFSET 0.200000 -0.500000 1.950000
						CHANNELS 3 Zrotation Yrotation Xrotation
						End Site
						{
							OFFSET 0.000000 0.000000 0.000000
						}
					}
				}
			}
		}
	}
	JOINT RHipJoint
	{
		OFFSET 0.000000 0.000000 0.000000
		CHANNELS 3 Zrotation Yrotation Xrotation
		JOINT RightUpLeg
		{
			OFFSET -1.800000 -1.400000 0.085000
			CHANNELS 3 Zrotation Yrotation Xrotation
			JOINT RightLeg
			{
				OFFSET -2.215000 -6.000000 0.000000
				CHANNELS 3 Zrotation Yrotation Xrotation
				JOINT RightFoot
				{
					OFFSET -2.500000 -6.900000 0.000000
					CHANNELS 3 Zrotation Yrotation Xrotation
					JOINT RightToeBase
					{
						OFFSET -0.200000 -0.500000 1.950000
						CHANNELS 3 Zrotation Yrotation Xrotation
						End Site
						{
							OFFSET 0.000000 0.000000 0.000000
						}
					}
				}
			}
		}
	}
	JOINT LowerBack
	{
		OFFSET 0.000000 0.000000 0.000000
		CHANNELS 3 Zrotation Yrotation Xrotation
		JOINT Spine
		{
			OFFSET -0.087000 1.940000 -0.288900
			CHANNELS 3 Zrotation Yrotation Xrotation
			JOINT Spine1
			{
				OFFSET 0.000000 1.950000 0.060000
				CHANNELS 3 Zrotation Yrotation Xrotation
				JOINT Neck
				{
					OFFSET 0.000000 0.000000 0.000000
					CHANNELS 3 Zrotation Yrotation Xrotation
					JOINT Neck1
					{
						OFFSET 0.000000 1.600000 0.340000
						CHANNELS 3 Zrotation Yrotation Xrotation
						JOINT Head
						{
							OFFSET 0.000000 1.667000 -0.240000
							CHANNELS 3 Zrotation Yrotation Xrotation
							End Site
							{
								OFFSET 0.000000 0.000000 0.000000
							}
						}
					}
				}
				JOINT LeftShoulder
				{
					OFFSET 0.000000 0.000000 0.000000
					CHANNELS 3 Zrotation Yrotation Xrotation
					JOINT LeftArm
					{
						OFFSET 2.700000 1.550000 -0.730000
						CHANNELS 3 Zrotation Yrotation Xrotation
						JOINT LeftForeArm
						{
							OFFSET 5.450000 0.000000 0.000000
							CHANNELS 3 Zrotation Yrotation Xrotation
							JOINT LeftHand
							{
								OFFSET 3.450000 0.000000 0.000000
								CHANNELS 3 Zrotation Yrotation Xrotation
								JOINT LeftHandIndex1
								{
									OFFSET 0.750000 0.000000 0.000000
									CHANNELS 3 Zrotation Yrotation Xrotation
									End Site
									{
										OFFSET 0.000000 0.000000 0.000000
									}
								}
							}
						}
					}
				}
				JOINT RightShoulder
				{
					OFFSET 0.000000 0.000000 0.000000
					CHANNELS 3 Zrotation Yrotation Xrotation
					JOINT RightArm
					{
						OFFSET -2.700000 1.550000 -0.730000
						CHANNELS 3 Zrotation Yrotation Xrotation
						JOINT RightForeArm
						{
							OFFSET -5.450000 0.000000 0.000000
							CHANNELS 3 Zrotation Yrotation Xrotation
							JOINT RightHand
							{
								OFFSET -3.450000 0.000000 0.000000
								CHANNELS 3 Zrotation Yrotation Xrotation
								JOINT RightHandIndex1
								{
									OFFSET -0.750000 0.000000 0.000000
									CHANNELS 3 Zrotation Yrotation Xrotation
									End Site
									{
										OFFSET 0.000000 0.000000 0.000000
									}
								}
							}
						}
					}
				}
			}
		}
	}
}
MOTION
Frames: 4
Frame Time: 0.016667
-0.655000 16.610700 0.068270 -8.621768 13.404670 1.775202 -15.434278 13.367626 3.360399 16.838292 -0.892245 -27.565129 1.511267 3.904320 11.543369 -1.441744 3.964590 3.301237 -0.607030 -1.152390 -0.567310 17.844396 -10.846377 3.314599 2.872435 0.952244 -8.999398 6.004365 -4.835167 5.950664 -0.182653 -3.118381 3.646899 -0.510780 0.855190 0.150710 -2.828908 -1.622587 -8.534471 7.251066 3.797913 13.673019 1.874916 6.864602 -13.683845 4.805807 4.074273 -10.702572 6.464637 -7.270445 51.339932 -4.814860 -5.136480 -8.365890 -23.729678 1.425724 0.144127 -70.685952 6.272521 -7.737181 -2.110777 -10.749969 -2.625177 -4.186107 1.706131 1.360570 0.256790 -0.152930 0.107060 13.947217 1.088756 6.425758 64.325216 -10.169203 -10.582169 -3.469883 5.685472 0.634381 1.906969 -0.272332 -0.986730 0.789630 0.839970 -0.319330 
-0.670030 16.612370 0.068000 -8.526155 12.998220 2.223490 -15.460032 13.372480 3.377155 16.721597 -0.937887 -27.802946 1.657862 3.862181 11.485251 -1.440958 3.943464 3.306434 -0.615530 -1.170320 -0.556570 17.816310 -10.838606 3.303776 2.663015 1.083799 -9.465561 6.260649 -4.864888 6.096514 -0.173525 -3.086673 3.652615 -0.524550 0.845140 0.158970 -2.737953 -1.649167 -8.524847 6.491760 3.863619 13.728444 2.179301 6.948426 -14.500230 4.842523 4.347831 -10.613890 7.138945 -7.349516 51.079752 -5.272560 -4.608800 -8.450740 -23.474340 2.186609 0.018723 -70.427797 7.130298 -7.899319 -1.834922 -9.984297 -2.586027 -4.202381 1.692244 1.366950 0.256360 -0.147840 0.095710 13.676254 0.239669 6.167043 64.537342 -10.374203 -10.799065 -4.196297 5.879065 0.615605 1.911503 -0.266649 -0.985140 0.776600 0.844060 -0.330010 
-0.697320 16.617340 0.061750 -8.229852 12.279186 2.990464 -15.504943 13.388214 3.408151 16.432644 -1.017796 -28.070074 1.665392 3.817470 11.208956 -1.431470 3.888781 3.312321 -0.633540 -1.191030 -0.557110 17.766115 -10.804539 3.292601 2.158131 1.263924 -10.101753 6.862243 -4.898650 5.966059 -0.160868 -3.038245 3.661769 -0.546760 0.822460 0.164370 -2.577808 -1.751381 -8.520759 5.018908 3.937854 13.854961 2.918786 7.000352 -15.585169 4.750382 4.500004 -10.637548 7.503631 -7.128984 51.217685 -5.339430 -3.933030 -8.711600 -22.555653 3.043201 0.010574 -70.653234 8.387351 -8.108119 -1.439164 -8.224591 -2.465991 -4.223125 1.680525 1.372790 0.246960 -0.138340 0.074050 13.122532 -0.666671 5.960942 64.982019 -10.879955 -11.443611 -5.327382 6.947021 0.501856 1.910240 -0.253533 -0.974780 0.751850 0.855670 -0.340310 
-0.726380 16.617010 0.053950 -8.021079 11.373570 4.140240 -15.537574 13.360267 3.470748 16.259280 -1.126874 -28.728437 1.570390 3.802422 10.920257 -1.391069 3.843018 3.333920 -0.664060 -1.219690 -0.581040 17.735636 -10.756389 3.274753 1.588431 1.536687 -11.110375 7.646949 -4.932212 5.926482 -0.133985 -2.988922 3.680438 -0.577380 0.834080 0.170020 -2.461298 -1.824043 -8.525315 3.724833 3.926487 13.809759 3.861543 6.961768 -16.672212 4.436364 4.340708 -10.564096 7.115002 -6.486848 50.405172 -5.058860 -3.334560 -8.024770 -20.948358 4.240641 -0.009053 -71.414149 9.736964 -8.295173 -1.526853 -5.937324 -2.250695 -4.260959 1.672614 1.351410 0.255700 -0.144240 0.073380 12.271710 -1.763858 5.714952 65.099081 -11.437877 -12.120151 -5.723706 8.432192 0.330493 1.916617 -0.250343 -0.962670 0.730590 0.858180 -0.326490 
